<mxfile host="app.diagrams.net" modified="2024-03-24T07:42:54.532Z" agent="Mozilla/5.0 (Windows NT 10.0; Win64; x64) AppleWebKit/537.36 (KHTML, like Gecko) Chrome/122.0.0.0 Safari/537.36" etag="MlNCaaffMaYDGQFjqOr1" version="24.1.0" type="onedrive">
  <diagram name="Page-1" id="2YBvvXClWsGukQMizWep">
    <mxGraphModel grid="1" page="1" gridSize="10" guides="1" tooltips="1" connect="1" arrows="1" fold="1" pageScale="1" pageWidth="850" pageHeight="1100" math="0" shadow="0">
      <root>
        <mxCell id="0" />
        <mxCell id="1" parent="0" />
        <mxCell id="JYyjgAMGVOueUWerTMK4-2" value="&lt;font data-font-src=&quot;https://fonts.googleapis.com/css?family=Sen&quot; style=&quot;font-size: 36px;&quot;&gt;&lt;b style=&quot;font-size: 36px;&quot;&gt;User Interface&lt;/b&gt;&lt;/font&gt;" style="shape=umlLifeline;perimeter=lifelinePerimeter;whiteSpace=wrap;html=1;container=1;dropTarget=0;collapsible=0;recursiveResize=0;outlineConnect=0;portConstraint=eastwest;newEdgeStyle={&quot;curved&quot;:0,&quot;rounded&quot;:0};size=110;fillColor=#d5e8d4;strokeColor=#82b366;strokeWidth=2;fontFamily=Sen;fontSource=https%3A%2F%2Ffonts.googleapis.com%2Fcss%3Ffamily%3DSen;fontSize=36;" vertex="1" parent="1">
          <mxGeometry x="-220" y="10" width="180" height="620" as="geometry" />
        </mxCell>
        <mxCell id="JYyjgAMGVOueUWerTMK4-22" value="&lt;font data-font-src=&quot;https://fonts.googleapis.com/css?family=Sen&quot; style=&quot;font-size: 36px;&quot;&gt;&lt;b style=&quot;font-size: 36px;&quot;&gt;Database API&lt;/b&gt;&lt;/font&gt;" style="shape=umlLifeline;perimeter=lifelinePerimeter;whiteSpace=wrap;html=1;container=1;dropTarget=0;collapsible=0;recursiveResize=0;outlineConnect=0;portConstraint=eastwest;newEdgeStyle={&quot;curved&quot;:0,&quot;rounded&quot;:0};size=110;fillColor=#e1d5e7;strokeColor=#9673a6;strokeWidth=2;fontFamily=Sen;fontSource=https%3A%2F%2Ffonts.googleapis.com%2Fcss%3Ffamily%3DSen;fontSize=36;" vertex="1" parent="1">
          <mxGeometry x="320" y="10" width="180" height="620" as="geometry" />
        </mxCell>
        <mxCell id="JYyjgAMGVOueUWerTMK4-23" value="&lt;font style=&quot;font-size: 36px;&quot; data-font-src=&quot;https://fonts.googleapis.com/css?family=Sen&quot;&gt;&lt;b style=&quot;font-size: 36px;&quot;&gt;Message Broker&lt;/b&gt;&lt;/font&gt;" style="shape=umlLifeline;perimeter=lifelinePerimeter;whiteSpace=wrap;html=1;container=1;dropTarget=0;collapsible=0;recursiveResize=0;outlineConnect=0;portConstraint=eastwest;newEdgeStyle={&quot;curved&quot;:0,&quot;rounded&quot;:0};size=110;fillColor=#ffe6cc;strokeColor=#d79b00;strokeWidth=2;fontFamily=Sen;fontSource=https%3A%2F%2Ffonts.googleapis.com%2Fcss%3Ffamily%3DSen;fontSize=36;" vertex="1" parent="1">
          <mxGeometry x="870" y="10" width="160" height="610" as="geometry" />
        </mxCell>
        <mxCell id="JYyjgAMGVOueUWerTMK4-32" value="&lt;font style=&quot;font-size: 24px;&quot; data-font-src=&quot;https://fonts.googleapis.com/css?family=Sen&quot;&gt;POST MissionInfo&lt;/font&gt;" style="html=1;verticalAlign=bottom;endArrow=block;curved=0;rounded=0;labelBackgroundColor=none;strokeWidth=2;fontFamily=Sen;fontSource=https%3A%2F%2Ffonts.googleapis.com%2Fcss%3Ffamily%3DSen;fontSize=24;" edge="1" parent="1" source="JYyjgAMGVOueUWerTMK4-2">
          <mxGeometry x="-0.0411" width="80" relative="1" as="geometry">
            <mxPoint x="-10" y="300" as="sourcePoint" />
            <mxPoint x="410" y="300" as="targetPoint" />
            <mxPoint as="offset" />
          </mxGeometry>
        </mxCell>
        <mxCell id="JYyjgAMGVOueUWerTMK4-33" value="&lt;font style=&quot;font-size: 24px;&quot; data-font-src=&quot;https://fonts.googleapis.com/css?family=Sen&quot;&gt;POST Zones&lt;/font&gt;" style="html=1;verticalAlign=bottom;endArrow=block;curved=0;rounded=0;labelBackgroundColor=none;strokeWidth=2;fontFamily=Sen;fontSource=https%3A%2F%2Ffonts.googleapis.com%2Fcss%3Ffamily%3DSen;fontSize=24;" edge="1" parent="1" source="JYyjgAMGVOueUWerTMK4-2">
          <mxGeometry x="-0.0421" width="80" relative="1" as="geometry">
            <mxPoint x="-10.176470588235588" y="350" as="sourcePoint" />
            <mxPoint x="410" y="350" as="targetPoint" />
            <mxPoint as="offset" />
          </mxGeometry>
        </mxCell>
        <mxCell id="JYyjgAMGVOueUWerTMK4-34" value="&lt;font style=&quot;font-size: 24px;&quot; data-font-src=&quot;https://fonts.googleapis.com/css?family=Sen&quot;&gt;Mission Info&lt;/font&gt;" style="html=1;verticalAlign=bottom;endArrow=block;curved=0;rounded=0;labelBackgroundColor=none;strokeWidth=2;fontSize=24;fontFamily=Sen;fontSource=https%3A%2F%2Ffonts.googleapis.com%2Fcss%3Ffamily%3DSen;" edge="1" parent="1" target="JYyjgAMGVOueUWerTMK4-23">
          <mxGeometry x="0.002" y="5" width="80" relative="1" as="geometry">
            <mxPoint x="410.1666666666665" y="314.5" as="sourcePoint" />
            <mxPoint x="829" y="314.5" as="targetPoint" />
            <mxPoint y="1" as="offset" />
          </mxGeometry>
        </mxCell>
        <mxCell id="JYyjgAMGVOueUWerTMK4-37" value="&lt;font style=&quot;font-size: 24px;&quot; data-font-src=&quot;https://fonts.googleapis.com/css?family=Sen&quot;&gt;Geofence Info&lt;/font&gt;" style="html=1;verticalAlign=bottom;endArrow=block;curved=0;rounded=0;labelBackgroundColor=none;strokeWidth=2;fontFamily=Sen;fontSource=https%3A%2F%2Ffonts.googleapis.com%2Fcss%3Ffamily%3DSen;fontSize=24;" edge="1" parent="1" target="JYyjgAMGVOueUWerTMK4-23">
          <mxGeometry x="0.0024" width="80" relative="1" as="geometry">
            <mxPoint x="409.9966666666667" y="370" as="sourcePoint" />
            <mxPoint x="829.0000000000005" y="370" as="targetPoint" />
            <mxPoint as="offset" />
          </mxGeometry>
        </mxCell>
        <mxCell id="M5nHN-oCA2bxab1TRtN3-3" value="&lt;font data-font-src=&quot;https://fonts.googleapis.com/css?family=Sen&quot; style=&quot;font-size: 28px;&quot;&gt;Loop: Active Connection&lt;/font&gt;" style="shape=umlFrame;whiteSpace=wrap;html=1;pointerEvents=0;recursiveResize=0;container=1;collapsible=0;width=360;strokeWidth=2;fontFamily=Sen;fontSource=https%3A%2F%2Ffonts.googleapis.com%2Fcss%3Ffamily%3DSen;fontSize=28;height=30;" vertex="1" parent="1">
          <mxGeometry x="-170" y="130" width="1160" height="130" as="geometry" />
        </mxCell>
        <mxCell id="JYyjgAMGVOueUWerTMK4-26" value="&lt;font data-font-src=&quot;https://fonts.googleapis.com/css?family=Sen&quot; style=&quot;font-size: 24px;&quot;&gt;Start connection controller&lt;/font&gt;" style="html=1;verticalAlign=bottom;endArrow=block;curved=0;rounded=0;labelBackgroundColor=none;strokeWidth=2;fontSize=24;fontFamily=Sen;fontSource=https%3A%2F%2Ffonts.googleapis.com%2Fcss%3Ffamily%3DSen;" edge="1" parent="M5nHN-oCA2bxab1TRtN3-3">
          <mxGeometry x="0.0024" width="80" relative="1" as="geometry">
            <mxPoint x="40" y="60" as="sourcePoint" />
            <mxPoint x="579" y="60" as="targetPoint" />
            <mxPoint as="offset" />
          </mxGeometry>
        </mxCell>
        <mxCell id="JYyjgAMGVOueUWerTMK4-30" value="Telemetry data" style="html=1;verticalAlign=bottom;endArrow=open;dashed=1;endSize=8;curved=0;rounded=0;labelBackgroundColor=none;fontFamily=Sen;fontSource=https%3A%2F%2Ffonts.googleapis.com%2Fcss%3Ffamily%3DSen;fontSize=24;" edge="1" parent="M5nHN-oCA2bxab1TRtN3-3">
          <mxGeometry x="-0.5018" relative="1" as="geometry">
            <mxPoint x="1119.4999999999995" y="110" as="sourcePoint" />
            <mxPoint x="40.5" y="110" as="targetPoint" />
            <mxPoint as="offset" />
          </mxGeometry>
        </mxCell>
        <mxCell id="JYyjgAMGVOueUWerTMK4-31" value="&lt;font style=&quot;font-size: 24px;&quot; data-font-src=&quot;https://fonts.googleapis.com/css?family=Sen&quot;&gt;Begin receiving Telemetry&lt;/font&gt;" style="html=1;verticalAlign=bottom;endArrow=block;curved=0;rounded=0;labelBackgroundColor=none;strokeWidth=2;fontFamily=Sen;fontSource=https%3A%2F%2Ffonts.googleapis.com%2Fcss%3Ffamily%3DSen;fontSize=24;" edge="1" parent="M5nHN-oCA2bxab1TRtN3-3">
          <mxGeometry x="-0.0411" width="80" relative="1" as="geometry">
            <mxPoint x="580.3939393939393" y="70.00000000000011" as="sourcePoint" />
            <mxPoint x="1119" y="70.00000000000011" as="targetPoint" />
            <mxPoint as="offset" />
          </mxGeometry>
        </mxCell>
        <mxCell id="JYyjgAMGVOueUWerTMK4-45" value="&lt;font style=&quot;font-size: 28px;&quot;&gt;Option: Change Mission&lt;/font&gt;" style="shape=umlFrame;whiteSpace=wrap;html=1;pointerEvents=0;recursiveResize=0;container=1;collapsible=0;width=360;strokeWidth=2;fontFamily=Sen;fontSource=https%3A%2F%2Ffonts.googleapis.com%2Fcss%3Ffamily%3DSen;fontSize=28;height=30;" vertex="1" parent="1">
          <mxGeometry x="-170" y="520" width="1160" height="110" as="geometry" />
        </mxCell>
        <mxCell id="JYyjgAMGVOueUWerTMK4-47" value="&lt;font style=&quot;font-size: 24px;&quot; data-font-src=&quot;https://fonts.googleapis.com/css?family=Sen&quot;&gt;POST MissionInfo&lt;/font&gt;" style="html=1;verticalAlign=bottom;endArrow=block;curved=0;rounded=0;labelBackgroundColor=none;strokeWidth=2;fontSize=24;fontFamily=Sen;fontSource=https%3A%2F%2Ffonts.googleapis.com%2Fcss%3Ffamily%3DSen;" edge="1" parent="JYyjgAMGVOueUWerTMK4-45">
          <mxGeometry x="0.0022" width="80" relative="1" as="geometry">
            <mxPoint x="39.82352941176441" y="70" as="sourcePoint" />
            <mxPoint x="579" y="70" as="targetPoint" />
            <mxPoint x="-1" as="offset" />
          </mxGeometry>
        </mxCell>
        <mxCell id="M5nHN-oCA2bxab1TRtN3-2" value="&lt;font style=&quot;font-size: 24px;&quot;&gt;&lt;span style=&quot;font-size: 24px;&quot;&gt;Updated Mission Info&lt;/span&gt;&lt;/font&gt;" style="html=1;verticalAlign=bottom;endArrow=block;curved=0;rounded=0;labelBackgroundColor=none;strokeWidth=2;fontFamily=Sen;fontSource=https%3A%2F%2Ffonts.googleapis.com%2Fcss%3Ffamily%3DSen;fontSize=24;" edge="1" parent="JYyjgAMGVOueUWerTMK4-45">
          <mxGeometry x="0.0019" width="80" relative="1" as="geometry">
            <mxPoint x="580.0035294117649" y="80" as="sourcePoint" />
            <mxPoint x="1118.9999999999995" y="80" as="targetPoint" />
            <mxPoint as="offset" />
          </mxGeometry>
        </mxCell>
        <mxCell id="JYyjgAMGVOueUWerTMK4-41" value="&lt;font data-font-src=&quot;https://fonts.googleapis.com/css?family=Sen&quot; style=&quot;font-size: 28px;&quot;&gt;Option: Emergency&lt;/font&gt;" style="shape=umlFrame;whiteSpace=wrap;html=1;pointerEvents=0;recursiveResize=0;container=1;collapsible=0;width=360;strokeWidth=2;fontSize=28;fontFamily=Sen;fontSource=https%3A%2F%2Ffonts.googleapis.com%2Fcss%3Ffamily%3DSen;height=30;" vertex="1" parent="1">
          <mxGeometry x="-170" y="390" width="1160" height="110" as="geometry" />
        </mxCell>
        <mxCell id="JYyjgAMGVOueUWerTMK4-49" value="&lt;font style=&quot;font-size: 24px;&quot; data-font-src=&quot;https://fonts.googleapis.com/css?family=Sen&quot;&gt;Emergency Stop Message&lt;/font&gt;" style="html=1;verticalAlign=bottom;endArrow=block;curved=0;rounded=0;labelBackgroundColor=none;strokeWidth=2;fontSize=24;fontFamily=Sen;fontSource=https%3A%2F%2Ffonts.googleapis.com%2Fcss%3Ffamily%3DSen;" edge="1" parent="JYyjgAMGVOueUWerTMK4-41">
          <mxGeometry x="0.0024" width="80" relative="1" as="geometry">
            <mxPoint x="580.0003448275863" y="69.99999999999989" as="sourcePoint" />
            <mxPoint x="1118.9999999999995" y="70" as="targetPoint" />
            <mxPoint as="offset" />
          </mxGeometry>
        </mxCell>
        <mxCell id="JYyjgAMGVOueUWerTMK4-44" value="&lt;font style=&quot;font-size: 24px;&quot; data-font-src=&quot;https://fonts.googleapis.com/css?family=Sen&quot;&gt;POST Emergency Stop&lt;/font&gt;" style="html=1;verticalAlign=bottom;endArrow=block;curved=0;rounded=0;labelBackgroundColor=none;strokeWidth=2;fontFamily=Sen;fontSource=https%3A%2F%2Ffonts.googleapis.com%2Fcss%3Ffamily%3DSen;fontSize=24;" edge="1" parent="JYyjgAMGVOueUWerTMK4-41">
          <mxGeometry x="0.0016" width="80" relative="1" as="geometry">
            <mxPoint x="40.31034482758605" y="59.999999999999886" as="sourcePoint" />
            <mxPoint x="579" y="60" as="targetPoint" />
            <mxPoint as="offset" />
          </mxGeometry>
        </mxCell>
      </root>
    </mxGraphModel>
  </diagram>
</mxfile>
